<svg width="626" height="500" viewBox="0 0 626 500" fill="none" xmlns="http://www.w3.org/2000/svg">
<path d="M6.51562 141.711C9.71914 132.883 12.9228 124.054 16.9631 114.233C18.8611 112.694 19.9226 112.149 21.9307 111.338C27.3596 108.727 31.8421 106.384 37.0495 103.662C44.0109 106.454 51.1315 105.182 58.3637 100.288C59.5245 100.13 59.9852 100.043 61.2673 100.05C64.322 100.138 66.4711 99.9372 67.8484 97.6689C67.9555 97.6362 68.1231 97.4874 68.8772 97.5165C70.8803 96.8009 72.1296 96.056 74.001 95.2657C74.6231 95.2202 75.8491 94.9894 76.6001 95.0018C78.5609 94.2273 79.7707 93.4404 81.9466 92.6105C85.4683 92.3856 88.0239 92.2031 90.4526 92.8799C87.8852 98.3302 85.4448 102.921 82.3574 108.063C77.8779 113.497 74.0457 118.381 69.3449 123.436C67.121 124.585 65.1978 125.265 64.5016 126.589C59.7629 135.605 55.2351 144.734 50.7854 153.897C50.2881 154.921 50.7095 156.391 50.4384 158.566C45.8296 169.278 41.8972 179.201 40.2567 190.575C38.766 192.178 37.5619 193.253 37.5511 194.34C37.4257 207.176 37.3457 220.017 37.6488 232.848C37.6876 234.493 39.9615 236.085 41.32 238.596C41.5104 241.291 41.5803 243.092 41.1988 245.349C39.6867 248.483 41.2865 249.737 43.5743 251.598C43.8642 254.254 43.962 256.036 43.6272 258.291C42.5239 260.695 43.1034 262.083 45.0976 263.785C45.4725 266.421 45.7412 268.176 45.7373 270.715C45.194 274.046 46.5322 275.54 48.8665 277.231C49.0438 279.011 49.0779 280.034 48.611 281.797C48.0102 283.382 47.6781 284.276 47.8444 285.065C55.0008 319.029 64.5517 352.331 75.7844 385.155C81.0849 400.644 87.6867 415.463 98.8923 428.192C97.9975 429.38 97.3572 429.96 95.9156 430.169C90.4937 426.485 87.2994 422.096 84.4792 417.156C75.086 400.699 68.8584 382.985 63.238 365.029C60.6883 356.884 58.9213 348.496 56.4454 340.325C47.0211 309.225 40.7865 277.401 34.7793 245.529C33.4401 238.424 32.6334 231.192 32.0208 223.981C31.1111 213.272 29.4892 202.804 24.9383 192.67C26.0036 189.93 26.4066 187.726 27.5396 184.791C29.5431 172.663 30.8299 161.279 34.4279 150.296C36.8157 143.008 39.1279 135.687 41.1716 128.297C42.1465 124.772 44.5097 121.42 43.4657 117.388C30.5091 119.749 20.394 126.907 8.36858 141.648C7.75125 141.677 6.51562 141.711 6.51562 141.711Z" fill="#727678"/>
<path d="M597.797 398.462C596.207 405.091 596.181 411.074 591.044 416.909C584.792 421.008 580.888 426.32 573.493 424.777C570.25 422.789 567.712 420.942 564.955 420.518C556.743 419.256 548.445 418.553 540.164 416.813C540.148 414.904 540.149 413.814 541.104 412.708C545.725 411.796 549.393 410.9 553.845 410.728C560.046 411.8 565.471 412.531 570.875 412.393C576.591 412.247 582.629 413.944 588.901 410.025C588.901 404.911 588.901 399.508 588.984 393.55C589.067 392.996 589.333 391.907 590.135 391.429C591.928 389.584 593.285 388.35 593.843 386.824C595.755 381.595 596.208 376.039 597.25 370.611C601.183 350.111 605.914 329.765 608.612 309.033C609.821 299.746 611.105 290.467 612.345 281.183C613.02 276.134 613.594 271.069 614.375 266.036C614.739 263.695 614.218 261.841 612.457 259.282C613.91 251.583 615.902 244.992 616.612 238.266C617.636 228.579 621.529 219.171 619.767 208.058C619.717 202.753 621.145 198.347 617.251 193.347C610.596 194.822 603.064 195.092 595.845 197.438C595.049 197.697 594.805 199.654 593.438 200.807C591.414 200.786 590.258 200.78 588.673 200.209C586.915 199.203 585.585 198.762 584.11 197.482C583.832 195.516 583.699 194.389 584.368 193.24C585.7 193.174 586.231 193.131 587.651 193C598.001 187.968 606.862 182.16 614.397 175.595C616.398 168.922 613.643 163.751 611.586 158.716C605.922 144.857 599.955 131.114 593.721 117.502C591.062 111.695 587.618 106.215 584.145 100.835C583.127 99.2591 580.785 98.538 578.982 96.5424C578.894 91.5858 576.857 88.8422 573.406 86.3726C573.782 84.6633 574.032 83.695 575.149 82.7423C578.261 82.667 580.507 82.5762 582.752 82.4854C585.574 84.8628 582.526 88.6178 585.079 91.3967C587.343 93.8615 588.561 97.2734 590.315 100.223C599.102 114.994 606.856 130.258 613.219 146.253C623.917 173.148 627.648 200.703 623.459 229.523C620.315 251.157 619.176 273.089 615.872 294.694C611.596 322.659 606.04 350.429 601.068 378.289C599.938 384.619 598.941 390.972 597.797 398.462Z" fill="#5B6268"/>
<path d="M6.10571 142.626C6.5168 141.712 7.75242 141.678 8.37857 142.576C9.13729 145.32 9.27002 147.166 9.22216 149.994C10.8925 160.912 12.639 163.855 19.5343 168.2C22.3798 174.378 24.5953 179.95 26.8109 185.522C26.4078 187.726 26.0047 189.93 24.298 192.103C18.7999 185.394 15.5505 177.84 7.10532 174.22C6.60418 176.109 6.02998 177.26 6.03344 178.41C6.09721 200.242 6.20285 222.075 6.38265 243.907C6.40359 246.453 6.95575 248.991 7.18877 251.54C7.6929 257.051 8.14949 262.567 7.94025 268.834C6.99212 273.823 5.60079 278.379 6.69392 282.23C9.22247 291.134 8.53806 300.08 8.79501 309.042C8.89326 312.468 8.8276 315.925 9.26797 319.312C10.6952 330.295 13.2814 341.222 13.6155 352.226C13.984 364.368 16.7623 375.921 19.3046 387.579C20.3901 392.558 22.3372 397.39 24.2735 402.133C29.8309 415.747 38.383 427.558 47.2545 439.118C49.8289 442.473 52.712 445.877 57.9492 446.945C60.6275 450.656 60.0391 455.992 65.6148 457.159C68.1207 464.685 73.1808 467.542 80.231 468.782C82.1723 465.655 84.0559 462.948 85.5888 460.055C86.9989 457.395 88.431 454.913 91.5315 454.928C90.4009 461.175 89.2276 466.398 87.2051 471.815C83.5512 472.985 80.7465 473.962 77.0711 474.729C66.881 470.783 60.8647 463.151 54.3897 456.051C51.311 452.675 48.1718 449.354 45.0597 446.009C43.2121 443.496 41.3645 440.984 39.0003 437.91C36.8391 434.834 35.2806 432.258 33.5364 429.815C19.7424 410.497 12.05 388.871 9.24908 365.427C4.15151 322.759 0.366403 280.009 0.622249 236.97C0.724272 219.803 -0.289509 202.621 0.0823732 185.465C0.388602 171.354 0.568246 157.074 6.10571 142.626Z" fill="#565E63"/>
<path d="M583.373 81.8991C580.508 82.5764 578.262 82.6672 573.886 82.608C561.523 82.4095 551.288 82.204 541.059 82.3744C535.369 82.469 530.148 81.4493 525.09 78.7641C522.299 77.2825 519.533 74.7672 515.145 76.2591C515.599 78.0631 515.98 79.5853 516.365 81.1063C516.841 82.9872 518.757 84.8228 516.606 86.7745C515.723 86.9578 514.828 87.4332 514.098 87.2515C502.17 84.2828 489.636 84.4892 477.928 80.2421C475.639 79.4121 472.867 79.9154 469.609 79.4096C466.525 77.3255 465.24 75.0599 465.291 72.0678C465.33 72.0264 465.398 71.9354 466.389 71.9648C469.43 72.5283 471.512 72.9641 473.526 73.6131C481.624 76.2232 489.66 79.0401 497.813 81.4633C500.177 82.1658 502.86 81.9718 505.388 81.8904C507.506 81.8221 509.126 79.3107 508.662 77.2825C507.572 72.5242 504.707 68.8559 501.493 65.3596C500.014 63.751 498.89 61.9235 501.856 59.6071C506.919 62.0525 512.199 64.7729 517.621 67.1732C523.073 69.5866 528.625 71.7931 534.219 73.8579C536.312 74.6307 538.461 74.4109 538.83 71.4102C535.107 67.8656 531.196 64.5369 527.807 60.7419C526.222 58.9663 525.645 56.2897 524.639 53.9939C524.667 53.9661 524.713 53.9054 525.614 54.0219C528.308 55.2093 530.345 56.0147 531.853 57.3965C538.32 63.3219 546.291 66.2888 554.46 68.4427C560.001 69.9031 566.082 71.4723 572.021 66.5614C573.36 66.257 573.878 66.0652 574.396 65.8733C574.396 65.8733 574.519 66.0385 574.367 66.9975C574.604 71.2505 576.065 73.4982 579.722 73.6043C579.722 73.6043 579.826 73.8002 579.8 74.5778C580.418 75.9375 581.063 76.5192 581.708 77.101C582.469 78.5049 583.231 79.9087 583.373 81.8991Z" fill="#679C13"/>
<path d="M103.43 14.2712C110.217 8.98942 118.456 8.53929 126.467 7.5022C152.823 4.08992 179.327 2.99009 205.856 1.58656C236.715 -0.0459002 267.531 -0.250735 298.368 0.222778C319.769 0.551521 341.154 2.00056 363.699 3.85863C364.804 5.51762 364.787 6.26776 363.661 7.15C358.269 7.17181 353.934 7.56282 349.783 6.86392C334.131 4.2287 318.411 5.22863 301.503 5.3153C260.063 4.95649 219.84 4.36419 179.608 7.14614C154.413 8.88842 129.319 10.784 104.249 15.3478C103.974 14.9902 103.43 14.2712 103.43 14.2712Z" fill="#74AB79"/>
<path d="M364.803 7.01851C364.787 6.26758 364.803 5.51744 364.864 4.21192C381.123 4.12658 397.393 4.19515 413.61 5.16351C437.119 6.5672 460.662 7.96782 484.054 10.586C506.372 13.0841 527.469 20.1687 546.963 31.672C553.02 35.2467 558.131 39.5655 561.356 47.0378C561.319 48.2007 560.637 48.9122 559.898 48.4754C557.034 46.042 555.086 43.8045 552.752 42.0918C544.411 35.9706 536.49 28.9535 524.761 27.351C514.564 22.3586 505.027 18.1663 493.555 17.0135C475.231 11.4914 457.059 12.4225 439.222 10.7236C415.802 8.49313 392.182 8.36568 368.648 7.32419C367.364 7.26735 366.084 7.1225 364.803 7.01851Z" fill="#669F67"/>
<path d="M57.6652 100.361C51.1331 105.182 44.0126 106.454 37.0512 103.662C31.8437 106.384 27.3613 108.727 21.0621 111.009C18.6243 110.873 18.0036 110.799 17.3828 110.726C17.5873 110.25 17.7917 109.773 18.9919 108.279C20.1935 106.405 20.3993 105.549 20.6051 104.693C30.8235 89.8118 41.0418 74.931 52.0159 59.6315C52.7718 59.2129 52.8129 59.2506 52.7512 60.2358C50.9499 66.4773 49.3227 71.7748 47.4359 76.9781C45.8429 81.3715 43.9488 85.6559 41.6423 90.2915C40.4247 91.1337 39.9608 91.8145 39.3725 92.7791C39.2702 92.8352 39.5004 92.7491 40.3071 92.4113C41.6116 91.6758 42.1141 91.0197 43.2849 90.1993C46.9826 89.3399 49.7873 88.473 52.5821 88.5078C51.6292 92.7892 50.6862 96.1687 49.5165 100.361C52.7315 100.361 55.1983 100.361 57.6652 100.361Z" fill="#5F962B"/>
<path d="M60.4453 50.1022C63.8582 46.4448 67.2711 42.7874 72.2927 38.8866C74.5054 38.6504 75.1096 38.6576 75.7508 39.6191C75.8215 41.2106 75.8555 41.8476 75.7404 43.2989C72.0623 49.3588 66.472 50.5609 60.6925 51.2676C60.5637 50.8906 60.4453 50.1022 60.4453 50.1022Z" fill="#BBD766"/>
<path d="M574.284 65.0186C573.879 66.0651 573.36 66.2569 571.631 65.8005C566.756 59.9826 562.445 55.202 560.641 48.9122C560.641 48.9122 561.322 48.2007 561.678 47.8506C566.08 53.0549 570.126 58.6094 574.284 65.0186Z" fill="#669F67"/>
<path d="M579.624 72.817C576.066 73.498 574.605 71.2503 574.422 67.085C576.259 68.1526 577.891 70.0914 579.624 72.817Z" fill="#669F67"/>
<path d="M80.8242 30.5737C82.651 28.7695 84.4777 26.9655 87.3844 25.2412C88.4643 25.3212 89.1363 26.0243 88.7114 26.6982C86.1098 28.796 83.9331 30.2197 81.525 31.3748C81.2936 31.1058 80.8242 30.5737 80.8242 30.5737Z" fill="#74AB79"/>
<path d="M90.6211 22.2726C92.696 20.6733 94.7712 19.074 97.878 17.5874C98.91 17.7004 99.4167 18.3121 98.988 18.9745C96.3258 20.9729 94.0924 22.309 91.5503 23.3014C91.2414 22.9577 90.6211 22.2726 90.6211 22.2726Z" fill="#74AB79"/>
<path d="M75.7091 38.6645C75.1048 38.6574 74.5006 38.6501 72.9844 38.5864C73.6025 36.9351 75.1329 35.3403 77.7058 33.6751C78.7481 33.6044 79.3379 34.1094 79.0562 34.8277C78.6566 36.5563 78.5385 37.5664 78.408 38.5251C78.3957 38.4735 78.4971 38.5054 77.7916 38.3957C76.6272 38.4121 76.1681 38.5383 75.7091 38.6645Z" fill="#74AB79"/>
<path d="M17.0107 111.073C18.0032 110.799 18.6239 110.873 20.1149 111.275C19.9239 112.149 18.8624 112.694 17.1716 113.329C16.2882 112.739 16.3203 112.072 17.0107 111.073Z" fill="#74AB79"/>
<path d="M18.4805 431.527C19.0975 431.404 19.4495 431.555 19.8016 431.706C19.2729 431.737 18.7442 431.769 18.4805 431.527Z" fill="#B2F2FD"/>
<path d="M98.6484 17.3975C99.6059 16.3054 100.819 15.5168 102.729 14.4997C103.425 14.2714 103.969 14.9905 103.756 15.9027C102.166 17.3142 100.789 17.8133 99.4113 18.3124C99.4113 18.3124 98.9046 17.7007 98.6484 17.3975Z" fill="#74AB79"/>
<path d="M52.7833 59.2444C53.1813 58.5124 53.5677 57.749 54.6043 56.7927C55.2545 56.5998 55.3085 56.6535 55.0313 57.208C54.2664 58.4668 53.6195 58.9629 52.8129 59.2508C52.8129 59.2508 52.7718 59.2131 52.7833 59.2444Z" fill="#5F962B"/>
<path d="M55.2305 56.5729C55.5997 55.777 55.9958 55.0076 57.0889 54.1018C57.7861 53.9655 57.8943 54.0779 57.6071 54.6368C56.8044 55.8937 56.135 56.3796 55.3114 56.6532C55.3114 56.6532 55.2574 56.5995 55.2305 56.5729Z" fill="#5F962B"/>
<path d="M57.7266 53.9083C58.1945 52.9499 58.7158 52.0487 59.8396 50.6248C60.4422 50.1021 60.5606 50.8904 60.2669 51.757C59.412 53.2999 58.7169 53.7847 57.8881 54.0779C57.8881 54.0779 57.7799 53.9655 57.7266 53.9083Z" fill="#5F962B"/>
<path d="M88.1289 24.9707C88.2331 23.8969 88.8113 23.3092 90.0751 22.5645C90.6236 22.2724 91.2439 22.9575 91.2219 23.8236C90.6356 25.3251 89.948 25.7701 89.1375 26.0246C89.1375 26.0246 88.4655 25.3215 88.1289 24.9707Z" fill="#74AB79"/>
<path d="M78.4609 33.3472C78.648 32.396 79.1263 31.7015 80.2139 30.7905C80.8232 30.5739 81.2926 31.106 81.1865 31.8435C80.5789 33.1794 79.9995 33.6887 79.3418 34.1091C79.3418 34.1091 78.7521 33.604 78.4609 33.3472Z" fill="#74AB79"/>
<path d="M20.0846 105.098C20.3979 105.548 20.1921 106.405 19.396 107.616C19.059 107.148 19.3123 106.326 20.0846 105.098Z" fill="#74AB79"/>
<path d="M581.585 76.4804C581.059 76.5195 580.414 75.9377 579.836 74.6811C580.775 74.328 581.296 74.9457 581.585 76.4804Z" fill="#669F67"/>
<path d="M49.1125 281.057C49.0783 280.034 49.0442 279.01 49.167 276.456C49.5685 272.365 48.0735 270.959 46.0104 269.93C45.7416 268.175 45.4729 266.421 45.6461 263.356C47.0886 259.833 46.1124 258.568 44.0601 257.819C43.9623 256.036 43.8646 254.254 43.929 250.777C43.2776 247.686 42.4641 246.29 41.6504 244.893C41.5807 243.092 41.5108 241.291 41.6615 237.373C41.9315 223.927 42.0607 212.596 41.9855 201.267C41.9608 197.527 41.4086 193.79 41.0977 190.052C41.8976 179.2 45.83 169.278 51.2278 158.232C59.6861 147.394 64.5085 136.319 70.1678 125.727C70.5123 125.082 70.2133 124.093 70.2139 123.264C74.0461 118.381 77.8783 113.497 83.3098 108.155C101.304 98.19 118.889 91.5963 137.072 86.4981C138.515 86.0934 140.121 86.2712 143.33 86.0763C140.813 89.7883 139.076 92.0812 137.655 94.5559C136.92 95.8376 136.746 97.4417 136.24 99.1688C138.263 99.561 139.581 100.213 140.714 99.9759C155.331 96.9201 170.203 94.7887 183.66 87.9911C186.062 89.6523 188.082 91.0502 190.471 92.7034C194.257 90.5681 197.9 88.4329 201.619 86.4379C205.718 84.2386 209.761 80.7743 214.054 80.3914C219.518 79.9043 222.104 86.0876 226.149 89.103C230.817 92.5823 234.991 97.1548 241.333 97.3732C242.862 94.9197 244.154 92.8456 245.523 90.65C256.758 94.7632 267.358 99.5418 278.448 102.449C289.361 105.31 300.145 109.603 312.809 109.773C311.149 104.895 309.836 101.034 308.171 96.1443C311.944 95.8756 314.839 95.1701 317.568 95.5796C323.05 96.4024 328.407 98.0219 333.875 98.9742C344.81 100.879 355.678 103.516 366.907 102.924C369.001 102.813 371.849 102.999 373.021 101.776C378.112 96.46 383.529 98.2102 389.608 99.3804C405.104 102.364 420.455 106.788 436.53 105.665C438.636 105.518 440.874 105.705 442.904 106.267C454.321 109.43 465.948 107.596 477.476 107.779C480.373 107.825 483.685 107.164 486.12 105.693C491.534 102.422 497.155 102.382 503.084 102.857C506.051 103.094 509.072 102.66 512.775 102.734C514.422 103.215 515.363 103.492 516.576 104.59C517.551 106.459 518.155 107.59 518.967 108.545C528.785 120.096 538.297 131.934 548.637 142.998C552.869 147.527 554.849 154.177 561.493 157.397C562.591 159.317 563.402 160.556 564.083 162.747C565.411 167.257 566.969 170.777 568.3 174.381C570.08 179.203 572.737 184 573.167 188.968C574.462 203.926 575.432 219.06 572.592 233.901C569.458 250.287 565.466 266.518 561.492 282.73C556.19 304.365 550.788 325.981 544.958 347.477C541.257 361.124 536.954 374.623 532.463 388.035C526.341 406.319 515.266 420.889 497.268 428.607C473.622 438.746 449.449 447.625 424.42 453.836C401.143 459.613 377.845 465.325 354.443 470.561C342.763 473.174 330.879 475.312 318.777 474.237C313.245 473.746 307.767 472.68 302.244 472.055C292.04 470.9 281.733 470.396 271.629 468.68C255.614 465.958 239.727 462.471 223.79 459.293C189.103 452.377 156.173 440.37 124.235 425.337C106.8 417.131 94.2703 403.965 85.2539 387.425C80.5555 378.805 76.3917 369.684 73.5225 360.32C66.1182 336.152 59.538 311.732 52.7247 287.386C52.0282 284.897 51.9556 282.241 49.1125 281.057Z" fill="#D8D9DB"/>
<path d="M8.62342 268.08C8.14731 262.566 7.69073 257.051 7.18659 251.539C6.95357 248.991 6.40142 246.453 6.38048 243.907C6.20068 222.075 6.09503 200.242 6.03127 178.409C6.0278 177.259 6.602 176.108 7.10314 174.219C15.5483 177.839 18.7978 185.393 23.6337 192.638C29.4882 202.804 31.1101 213.271 32.0198 223.981C32.6324 231.192 33.4391 238.423 34.7783 245.529C40.7855 277.401 47.0201 309.225 56.4444 340.325C58.9203 348.495 60.6873 356.883 63.237 365.029C68.8574 382.985 75.085 400.699 84.4782 417.155C87.2984 422.096 90.4927 426.485 95.8948 431.073C95.6969 435.135 94.7176 437.921 92.8325 440.852C82.3168 444.689 73.7977 450.271 65.5068 456.249C60.0369 455.992 60.6253 450.655 57.918 446.022C51.6066 432.979 45.6571 421.666 39.8743 410.27C34.0702 398.831 29.5373 386.894 26.9101 374.315C25.6083 368.081 24.9808 361.704 23.616 355.486C19.1489 335.133 16.5408 314.498 13.5758 293.903C12.5444 286.739 11.2258 279.662 10.9621 272.402C10.9089 270.935 9.43977 269.52 8.62342 268.08ZM35.6715 386.134C37.0523 388.281 38.0935 390.785 39.8898 392.497C42.9376 395.403 48.2178 393.882 49.2328 389.881C51.5088 380.907 48.9596 372.951 43.2737 365.955C41.5628 363.85 38.9715 363.167 36.2571 364.189C33.5426 365.211 32.0135 368.254 32.5918 371.618C33.3152 375.828 34.1708 380.014 35.6715 386.134ZM23.4424 280.012C24.2682 279.88 25.3851 280.047 25.8755 279.57C31.9826 273.63 30.4949 262.313 23.0614 259.102C21.941 258.618 19.244 259.427 18.7183 260.409C17.5944 262.511 16.5257 265.33 17.0393 267.471C18.0093 271.512 20.1116 275.281 23.4424 280.012Z" fill="#8D8E92"/>
<path d="M48.6101 281.797C51.9544 282.241 52.027 284.897 52.7235 287.386C59.5367 311.732 66.1169 336.153 73.5212 360.32C76.3905 369.685 80.5542 378.806 85.2527 387.425C94.269 403.965 106.799 417.131 124.233 425.338C156.172 440.371 189.102 452.377 223.788 459.293C239.726 462.472 255.612 465.959 271.628 468.68C281.732 470.396 292.039 470.9 302.243 472.055C307.766 472.68 313.244 473.746 318.776 474.238C330.877 475.312 342.762 473.175 354.442 470.561C377.843 465.326 401.142 459.613 424.418 453.837C449.447 447.625 473.621 438.747 497.266 428.607C515.265 420.889 526.339 406.319 532.462 388.036C536.953 374.624 541.255 361.124 544.956 347.478C550.787 325.981 556.189 304.365 561.491 282.73C565.464 266.519 569.457 250.287 572.591 233.902C575.43 219.06 574.461 203.927 573.166 188.968C572.736 184 570.079 179.203 568.298 174.381C566.968 170.777 565.41 167.257 564.874 163.05C568.297 166.315 570.971 170.134 573.263 174.169C576.833 180.456 580.143 186.89 583.564 193.262C583.697 194.389 583.83 195.516 584.032 198.687C583.991 212.701 583.776 224.553 581.9 236.536C577.867 262.316 572.672 287.818 566.682 313.179C560.679 338.595 553.417 363.658 545.234 388.459C544.041 392.075 543.474 395.898 542.678 399.628C542.739 399.633 542.694 399.52 542.046 399.96C540.943 401.871 540.489 403.341 540.103 404.803C540.173 404.795 540.13 404.662 539.464 405.178C536.631 409.676 534.464 413.657 532.339 417.669C532.38 417.701 532.374 417.597 531.763 417.842C530.68 418.805 530.207 419.522 529.791 420.251C529.848 420.263 529.821 420.149 529.037 420.18C527.026 421.07 525.798 421.93 524.619 422.819C524.667 422.848 524.657 422.736 524.051 422.999C522.962 423.974 522.479 424.686 522.053 425.409C522.109 425.421 522.082 425.308 521.295 425.334C519.286 426.219 518.064 427.079 516.888 427.97C516.934 428.001 516.918 427.891 516.132 427.92C514.125 428.807 512.902 429.664 511.728 430.551C511.775 430.581 511.762 430.468 510.977 430.506C508.97 431.395 507.747 432.246 506.57 433.129C506.616 433.16 506.599 433.05 505.813 433.077C503.807 433.962 502.586 434.819 501.411 435.709C501.455 435.741 501.446 435.631 500.567 435.6C497.666 436.467 495.643 437.366 493.671 438.292C493.722 438.32 493.713 438.204 492.93 438.253C490.922 439.146 489.697 439.989 488.515 440.865C488.557 440.897 488.542 440.791 487.57 440.757C481.42 440.826 476.585 441.814 473.036 446.028C473.084 446.058 473.079 445.945 472.201 445.935C469.299 446.809 467.275 447.693 465.299 448.607C465.346 448.638 465.338 448.525 464.46 448.513C461.559 449.386 459.536 450.271 457.561 451.186C457.607 451.217 457.595 451.105 456.56 451.091C445.192 452.801 435.086 455.166 425.481 461.373C422.694 462.289 420.748 463.181 418.861 464.1C418.919 464.127 418.93 463.999 418.05 463.995C415.133 464.88 413.097 465.769 411.121 466.682C411.182 466.708 411.195 466.578 410.315 466.581C407.397 467.47 405.358 468.355 403.382 469.266C403.445 469.291 403.462 469.157 402.582 469.168C399.663 470.058 397.623 470.938 395.644 471.843C395.705 471.867 395.718 471.736 394.668 471.745C392.767 471.806 391.881 471.72 391.071 471.93C378.347 475.227 365.833 479.419 352.655 480.779C351.455 480.902 350.337 481.815 348.357 482.322C346.438 482.347 345.341 482.41 343.03 482.349C338.379 482.211 334.929 481.983 331.511 482.219C315.574 483.317 299.866 480.668 284.109 479.21C274.346 478.306 264.75 475.69 254.994 474.608C237.1 472.624 219.483 469.146 201.989 465.145C175.215 459.022 149.015 450.986 124.007 439.41C117.447 436.373 110.803 433.518 103.705 430.013C101.857 428.824 100.501 428.204 99.146 427.583C87.6858 415.463 81.084 400.644 75.7835 385.155C64.5508 352.331 55 319.029 47.8435 285.065C47.6773 284.276 48.0093 283.382 48.6101 281.797Z" fill="#A4A4A6"/>
<path d="M512.069 102.53C509.072 102.66 506.051 103.094 503.084 102.857C497.155 102.382 491.534 102.422 486.12 105.693C483.685 107.164 480.373 107.825 477.476 107.779C465.948 107.596 454.321 109.43 442.904 106.267C440.874 105.705 438.636 105.518 436.53 105.665C420.455 106.788 405.104 102.364 389.608 99.3804C383.529 98.2102 378.112 96.46 373.021 101.776C371.849 102.999 369.002 102.813 366.907 102.924C355.678 103.516 344.81 100.879 333.875 98.9742C328.407 98.0219 323.05 96.4024 317.568 95.5796C314.84 95.1701 311.944 95.8756 308.171 96.1443C309.836 101.034 311.149 104.895 312.809 109.773C300.145 109.602 289.361 105.31 278.448 102.449C267.358 99.5418 256.758 94.7632 245.523 90.65C244.154 92.8456 242.862 94.9197 241.333 97.3732C234.991 97.1548 230.817 92.5823 226.15 89.103C222.105 86.0876 219.518 79.9043 214.054 80.3914C209.761 80.7743 205.718 84.2386 201.619 86.4379C197.901 88.4329 194.258 90.5681 190.472 92.7034C188.082 91.0502 186.062 89.6523 183.66 87.9911C170.204 94.7887 155.331 96.9201 140.714 99.9759C139.582 100.213 138.264 99.561 136.24 99.1688C136.746 97.4417 136.92 95.8376 137.656 94.5559C139.076 92.0812 140.813 89.7883 143.33 86.0763C140.121 86.2712 138.515 86.0934 137.072 86.4981C118.889 91.5963 101.304 98.19 83.957 107.605C85.4453 102.921 87.8857 98.33 90.5615 92.907C90.7972 92.0749 90.9913 92.1705 91.6321 92.0158C92.7914 91.1721 93.3102 90.483 94.5571 89.3664C98.9745 86.9509 102.664 84.9625 106.683 82.7962C107.276 85.1689 107.741 87.0299 108.429 89.786C122.703 87.105 135.747 81.6121 148.736 74.6951C149.569 77.258 149.733 79.2846 149.942 81.8845C160.262 82.812 170.135 82.0698 180.019 77.3805C180.557 77.3887 181.557 76.9886 182.415 77.072C185.299 76.3398 187.324 75.524 189.355 74.6657C189.36 74.6232 189.423 74.6816 190.28 74.7319C193.135 73.9051 195.132 73.0278 197.12 72.1426C197.109 72.1349 197.148 72.1936 197.747 72.6584C199.289 74.8521 200.23 76.5811 201.661 79.2092C205.479 76.5238 208.793 74.1927 212.272 71.8605C212.436 71.8592 212.562 71.5554 213.514 71.5415C216.352 71.7037 218.239 71.88 220.151 72.1014C220.176 72.1466 220.274 72.1782 220.562 72.9928C223.904 77.1999 226.564 81.2086 231.804 81.3534C232.906 79.0351 233.8 77.1561 234.812 75.0281C244.122 78.4105 253.155 82.3026 262.542 84.9293C271.771 87.5117 280.985 92.0517 291.065 88.8681C291.218 85.6143 291.346 82.8836 291.515 79.2764C309.835 83.4144 327.26 87.3897 344.866 88.7005C346.342 86.4776 347.487 84.7517 348.833 82.7227C350.476 82.9242 352.169 82.9694 353.78 83.3544C370.555 87.361 387.752 88.5365 404.815 89.5197C426.241 90.7544 447.776 90.1141 469.264 90.1829C471.798 90.1911 475.526 90.4965 476.642 89.0623C479.9 84.874 483.409 86.4201 487.127 87.1946C492.588 88.3321 498.054 89.4424 503.818 91.3451C506.264 95.9787 511.692 97.3239 512.069 102.53Z" fill="#A9AFAE"/>
<path d="M148.067 74.1591C135.748 81.6123 122.703 87.1052 108.429 89.7862C107.741 87.0301 107.276 85.1691 106.683 82.7964C102.664 84.9627 98.9748 86.9511 93.9292 89.5593C92.0458 90.8429 91.5187 91.5067 90.9916 92.1707C90.9916 92.1707 90.7974 92.0751 90.689 92.0479C88.0247 92.2031 85.4691 92.3856 81.2023 92.6539C78.2773 93.4896 77.0636 94.2395 75.8499 94.9894C75.8499 94.9894 74.6239 95.2202 73.2456 95.2778C70.6196 96.0528 69.3717 96.7701 68.1239 97.4874C68.1239 97.4874 67.9563 97.6362 67.0506 97.6913C64.2458 98.4834 62.3462 99.2202 60.4466 99.9572C59.986 100.043 59.5253 100.13 58.3645 100.288C55.1975 100.361 52.7306 100.361 49.5156 100.361C50.6853 96.1686 51.6284 92.7891 53.0964 87.8085C59.7382 81.524 65.8419 76.8237 71.9775 72.1649C74.9455 69.9112 77.8313 67.3477 82.9049 68.0798C80.4611 77.4914 70.1652 80.6445 66.766 90.4174C71.0004 89.5319 74.0582 89.473 76.5558 88.2605C83.8817 84.7044 91.0347 80.7794 98.1628 76.832C107.81 71.4899 117.453 66.1685 128.917 61.9194C128.917 65.6516 128.917 68.2885 128.917 71.8919C135.972 69.5181 142.081 67.6596 148.039 65.4046C154.37 63.0083 159.926 58.6978 167.559 56.9599C167.559 61.2696 167.559 64.8048 167.559 68.5347C172.444 69.9728 176.497 69.432 180.494 67.3835C184.698 65.229 188.895 63.0246 193.251 61.2181C195.523 60.2761 198.239 59.4275 200.564 59.7829C206.645 60.7121 211.382 58.6855 215.769 54.7665C217.241 53.4512 219.253 52.7409 221.169 51.6699C226.77 56.5817 232.065 60.9017 234.697 66.8853C230.268 66.6547 227.209 67.2487 224.69 70.0799C223.692 71.201 221.773 71.5033 220.274 72.1784C220.274 72.1784 220.176 72.1468 220.116 71.3287C217.117 66.4978 216.6 66.57 212.562 71.5556C212.562 71.5556 212.436 71.8594 211.484 71.7347C203.488 66.6553 203.488 66.6553 197.148 72.1939C197.148 72.1939 197.11 72.1351 196.248 72.0921C192.998 72.0211 190.753 72.3143 189.423 74.6818C189.423 74.6818 189.36 74.6234 188.495 74.6164C185.606 75.4026 183.582 76.1956 181.558 76.9888C181.558 76.9888 180.558 77.3889 178.871 77.3013C173.767 77.2184 170.321 76.9461 166.941 77.3017C163.243 77.6909 159.606 78.6601 154.765 79.6068C155.911 75.242 156.791 71.8905 157.8 68.0491C152.064 67.6176 150.292 71.2234 148.067 74.1591Z" fill="#649A1F"/>
<path d="M9.40293 149.011C9.27036 147.166 9.13764 145.32 8.99609 142.547C20.3955 126.907 30.5107 119.749 43.4672 117.388C44.5112 121.42 42.148 124.772 41.1731 128.297C39.1295 135.686 36.8172 143.007 34.4294 150.296C30.8314 161.279 29.5446 172.663 27.5411 184.79C24.5956 179.95 22.3801 174.378 19.4913 167.256C16.9804 161.098 15.3116 156.41 13.1991 151.932C12.5931 150.647 10.7039 149.968 9.40293 149.011Z" fill="#8D8E92"/>
<path d="M40.255 190.575C41.4065 193.791 41.9587 197.527 41.9834 201.268C42.0587 212.597 41.9294 223.927 41.5391 236.479C39.9598 236.085 37.686 234.493 37.6471 232.848C37.344 220.017 37.424 207.176 37.5495 194.34C37.5602 193.253 38.7643 192.178 40.255 190.575Z" fill="#A4A4A6"/>
<path d="M69.3484 123.436C70.2163 124.093 70.5153 125.082 70.1708 125.727C64.5115 136.319 59.6891 147.394 51.4971 157.321C50.7129 156.391 50.2914 154.921 50.7888 153.897C55.2385 144.734 59.7662 135.605 64.505 126.589C65.2012 125.265 67.1244 124.585 69.3484 123.436Z" fill="#A4A4A6"/>
<path d="M98.8952 428.192C100.505 428.204 101.861 428.825 103.696 430.841C104.143 433.339 104.109 434.442 103.352 435.994C99.7674 440.572 96.9067 444.7 93.9835 447.811C93.8615 444.766 93.8019 442.737 93.7422 440.708C94.7215 437.922 95.7008 435.135 96.6998 431.445C97.3601 429.96 98.0004 429.38 98.8952 428.192Z" fill="#565E63"/>
<path d="M45.7371 270.714C48.073 270.959 49.5679 272.365 49.0235 275.7C46.5321 275.54 45.1938 274.046 45.7371 270.714Z" fill="#A4A4A6"/>
<path d="M43.6303 258.292C46.1151 258.568 47.0913 259.833 45.5426 262.475C43.1065 262.083 42.527 260.695 43.6303 258.292Z" fill="#A4A4A6"/>
<path d="M41.202 245.349C42.4669 246.29 43.2804 247.686 43.7399 249.903C41.2897 249.737 39.6899 248.483 41.202 245.349Z" fill="#A4A4A6"/>
<path d="M61.2656 100.05C62.3438 99.2202 64.2434 98.4833 66.9412 97.7241C66.4695 99.9372 64.3204 100.138 61.2656 100.05Z" fill="#5F962B"/>
<path d="M76.6016 95.0016C77.0643 94.2392 78.278 93.4893 80.2369 92.6963C79.7722 93.4402 78.5624 94.2271 76.6016 95.0016Z" fill="#5F962B"/>
<path d="M68.8789 97.5164C69.3727 96.77 70.6206 96.0527 72.6245 95.3232C72.1314 96.056 70.8821 96.8009 68.8789 97.5164Z" fill="#5F962B"/>
<path d="M573.493 424.777C573.247 426.951 572.702 429.101 571.492 429.584C565.875 431.825 561.76 435.95 557.173 439.607C552.257 443.526 546.609 446.529 541.266 449.908C536.633 452.837 531.978 455.733 525.728 458.989C523.433 460.072 522.743 460.809 522.054 461.546C522.054 461.546 522.081 461.511 521.445 461.476C520.374 461.473 519.938 461.504 518.916 461.819C517.869 462.816 517.407 463.531 516.945 464.245C516.945 464.245 516.932 464.108 516.2 464.144C514.248 465.068 513.028 465.955 511.809 466.842C511.809 466.842 511.774 466.691 511.211 466.939C510.169 467.909 509.69 468.633 509.211 469.356C509.211 469.356 509.2 469.257 508.259 469.23C504.505 470.118 501.52 470.692 498.905 472.002C480.521 481.208 461.413 488.33 441.303 492.736C439.769 493.073 438.439 494.344 435.909 495.178C423.838 497.263 412.791 498.103 401.614 497.959C396.527 497.893 391.434 498.995 386.33 499.402C382.925 499.674 379.267 500.478 376.123 499.602C368.079 497.361 359.915 498.278 351.749 496.891C350.827 494.91 349.979 493.7 349.133 491.524C349.184 488.629 349.234 486.699 350.352 484.76C363.118 483.045 374.67 480.684 385.974 477.176C389.618 476.046 393.348 475.121 395.721 471.736C395.721 471.736 395.708 471.867 396.537 471.85C399.787 471.826 402.086 471.542 403.464 469.157C403.464 469.157 403.447 469.29 404.275 469.27C407.519 469.236 409.824 468.97 411.198 466.578C411.198 466.578 411.184 466.708 412.013 466.688C415.253 466.648 417.559 466.387 418.933 463.999C418.933 463.999 418.922 464.127 419.811 464.115C423.769 464.017 427.016 464.515 430.205 461.509C438.377 459.28 445.593 457.201 452.685 454.758C454.524 454.125 455.971 452.353 457.598 451.105C457.598 451.105 457.61 451.216 458.449 451.208C461.7 451.199 463.99 450.927 465.341 448.525C465.341 448.525 465.348 448.637 466.187 448.629C469.439 448.622 471.728 448.343 473.081 445.945C473.081 445.945 473.086 446.058 474.019 446.053C480.219 446.199 485.061 445.252 488.544 440.791C488.544 440.791 488.559 440.897 489.302 440.828C491.269 439.907 492.492 439.056 493.716 438.204C493.716 438.204 493.725 438.32 494.558 438.31C497.802 438.298 500.075 437.986 501.448 435.63C501.448 435.63 501.458 435.741 502.196 435.67C504.157 434.749 505.379 433.899 506.601 433.049C506.601 433.049 506.619 433.159 507.357 433.089C509.318 432.169 510.541 431.319 511.764 430.468C511.764 430.468 511.778 430.581 512.514 430.512C514.474 429.593 515.697 428.742 516.92 427.89C516.92 427.89 516.937 428.001 517.673 427.929C519.635 427.008 520.86 426.158 522.085 425.308C522.085 425.308 522.112 425.421 522.643 425.126C523.669 424.132 524.164 423.434 524.66 422.736C524.66 422.736 524.669 422.848 525.407 422.781C527.371 421.859 528.598 421.004 529.824 420.149C529.824 420.149 529.851 420.263 530.375 419.967C531.392 418.98 531.884 418.288 532.377 417.597C532.377 417.597 532.383 417.701 533.327 417.699C536.241 417.675 538.211 417.653 540.181 417.631C548.446 418.553 556.743 419.256 564.955 420.519C567.712 420.942 570.251 422.789 573.493 424.777Z" fill="#8C8D91"/>
<path d="M553.061 410.004C549.394 410.9 545.726 411.796 541.092 411.697C540.128 408.689 540.131 406.675 540.133 404.661C540.133 404.661 540.176 404.795 540.773 404.374C541.812 402.475 542.254 400.997 542.697 399.52C542.697 399.52 542.742 399.633 543.512 399.216C545.553 396.64 547.261 394.625 548.021 392.3C552.002 380.126 555.995 367.946 559.523 355.636C571.039 315.447 580.726 274.839 586.93 233.449C587.156 231.947 588.594 230.628 589.37 230.301C589.474 235.173 589.404 239.012 590.019 242.739C590.243 244.097 592.114 246.19 593.203 246.171C594.997 246.14 597.421 245.131 598.431 243.715C602.943 237.392 602.998 230.228 601.138 222.999C600.354 219.951 596.911 219.174 593.952 221.324C592.991 222.023 592.494 223.357 591.036 223.651C589.893 215.526 589.498 208.151 589.103 200.775C590.259 200.781 591.415 200.786 594.038 201.528C603.319 205.366 611.08 208.657 619.632 209.191C621.53 219.171 617.637 228.579 616.613 238.266C615.903 244.993 613.911 251.584 611.761 259.924C607.02 275.098 602.986 288.576 599.005 302.069C592.828 323.01 588.199 344.17 589.172 366.236C589.548 374.779 589.298 383.349 589.334 391.908C589.334 391.908 589.068 392.996 588.036 393.671C576.24 398.94 565.467 403.515 554.729 408.17C554.038 408.47 553.611 409.379 553.061 410.004ZM568.556 372.967C568.353 370.874 568.348 368.735 567.885 366.702C567.497 364.999 564.972 364.246 563.819 365.231C558.62 369.669 556.723 377.933 559.798 383.6C560.327 384.574 561.815 385.74 562.723 385.635C564.206 385.464 566.399 384.639 566.831 383.523C567.861 380.859 568.038 377.865 568.556 372.967Z" fill="#8D8E92"/>
<path d="M220.562 72.9929C221.773 71.5031 223.692 71.2008 224.69 70.0797C227.209 67.2485 230.268 66.6545 235.264 67.5733C241.723 70.8392 246.559 73.6222 251.637 75.8508C253.333 76.5947 256.914 76.6911 257.476 75.7692C260.804 70.3051 265.144 75.8802 269.291 74.5676C269.291 71.1328 269.291 67.9524 269.291 64.3652C272.469 64.5718 275.057 64.4222 277.499 64.9517C290.816 67.8396 304.073 71.0154 317.405 73.8297C322.372 74.8778 327.443 75.8479 331.85 71.5168C334.951 68.4689 338.974 69.5159 342.805 70.2713C350.317 71.7527 357.805 73.7886 365.395 74.3477C377.322 75.2254 389.023 77.2783 400.783 79.1977C409.18 80.5681 417.663 81.8325 426.146 82.1603C438.971 82.6558 451.83 82.3964 464.671 82.1862C466.565 82.1551 468.435 80.635 470.316 79.8037C472.865 79.9154 475.637 79.412 477.926 80.242C489.635 84.4891 502.168 84.2827 514.096 87.2515C514.827 87.4331 515.721 86.9577 516.604 86.7744C518.755 84.8227 516.84 82.9871 516.363 81.1063C515.978 79.5852 515.597 78.063 515.143 76.259C519.531 74.7671 522.297 77.2824 525.088 78.764C530.147 81.4492 535.367 82.4689 541.057 82.3743C551.287 82.204 561.521 82.4094 573.018 82.5924C574.032 83.6951 573.782 84.6634 572.244 86.4145C557.743 87.1973 544.53 87.1973 530.998 87.1973C529.854 88.7947 528.404 90.8185 525.912 92.6938C521.108 92.0226 517.356 91.3741 513.577 91.0145C510.24 90.697 506.873 90.7018 503.519 90.5642C498.054 89.4424 492.588 88.3322 487.127 87.1946C483.41 86.4202 479.9 84.8741 476.642 89.0624C475.526 90.4965 471.798 90.1911 469.264 90.1829C447.776 90.1141 426.241 90.7544 404.816 89.5198C387.752 88.5365 370.555 87.361 353.78 83.3544C352.169 82.9694 350.476 82.9243 348.834 82.7227C347.487 84.7517 346.342 86.4776 344.867 88.7006C327.26 87.3897 309.836 83.4144 291.515 79.2764C291.346 82.8836 291.218 85.6144 291.065 88.8681C280.985 92.0518 271.771 87.5117 262.542 84.9293C253.155 82.3027 244.122 78.4105 234.812 75.0281C233.8 77.1561 232.906 79.0351 231.804 81.3534C226.564 81.2086 223.904 77.1999 220.562 72.9929Z" fill="#5F962B"/>
<path d="M579.053 97.4253C580.788 98.5381 583.13 99.2592 584.147 100.835C587.62 106.215 591.064 111.695 593.723 117.502C599.957 131.114 605.925 144.857 611.588 158.716C613.645 163.751 616.401 168.922 614.4 175.595C606.864 182.16 598.003 187.968 587.485 192.074C583.826 184.935 581.724 178.368 578.517 172.393C572.673 161.506 565.907 151.114 560.036 140.24C555.599 132.024 551.83 123.435 548.039 114.89C546.891 112.302 546.66 109.307 546.082 106.811C550.578 101.697 555.756 100.068 561.515 100.434C567.649 100.822 573.353 99.2664 579.053 97.4253Z" fill="#8C8D91"/>
<path d="M578.984 96.5422C573.353 99.2662 567.649 100.822 561.515 100.433C555.756 100.068 550.578 101.697 546.082 106.811C546.66 109.307 546.891 112.302 548.039 114.89C551.83 123.435 555.599 132.024 560.036 140.24C565.907 151.114 572.673 161.505 578.517 172.393C581.724 178.367 583.826 184.935 586.595 192.161C586.233 193.131 585.703 193.174 584.371 193.239C580.148 186.89 576.838 180.455 573.267 174.169C570.976 170.133 568.302 166.315 565.007 162.097C563.405 160.556 562.594 159.317 561.443 156.469C559.353 151.034 557.917 147.023 555.797 143.413C548.315 130.677 541.143 117.73 531.831 105.153C530.078 100.464 528.518 96.6528 526.957 92.8418C528.407 90.8182 529.857 88.7944 531.001 87.197C544.533 87.197 557.746 87.197 572.121 87.1553C576.86 88.842 578.897 91.5856 578.984 96.5422Z" fill="#707376"/>
<path d="M590.133 391.429C589.295 383.349 589.545 374.779 589.168 366.235C588.196 344.17 592.825 323.01 599.002 302.069C602.983 288.576 607.017 275.098 611.724 260.971C614.216 261.841 614.737 263.695 614.373 266.036C613.591 271.069 613.017 276.134 612.343 281.183C611.103 290.467 609.819 299.746 608.61 309.033C605.912 329.765 601.181 350.111 597.247 370.611C596.206 376.039 595.753 381.596 593.841 386.824C593.283 388.35 591.926 389.584 590.133 391.429Z" fill="#6C6D71"/>
<path d="M588.676 200.21C589.5 208.151 589.895 215.526 590.969 224.353C590.922 226.944 590.195 228.084 589.468 229.223C588.595 230.627 587.157 231.947 586.932 233.449C580.728 274.839 571.04 315.447 559.525 355.636C555.997 367.946 552.004 380.126 548.023 392.3C547.262 394.625 545.555 396.64 543.453 399.211C543.479 395.897 544.046 392.075 545.239 388.459C553.422 363.658 560.684 338.595 566.687 313.179C572.677 287.818 577.872 262.316 581.905 236.536C583.781 224.553 583.996 212.701 584.182 199.526C585.588 198.762 586.917 199.203 588.676 200.21Z" fill="#707376"/>
<path d="M553.846 410.728C553.611 409.379 554.038 408.47 554.73 408.171C565.468 403.516 576.24 398.94 587.953 394.226C588.902 399.508 588.902 404.911 588.902 410.026C582.631 413.945 576.592 412.248 570.876 412.393C565.472 412.531 560.047 411.8 553.846 410.728Z" fill="#6C6D71"/>
<path d="M619.767 208.058C611.079 208.657 603.318 205.366 594.904 201.544C594.805 199.654 595.049 197.697 595.845 197.439C603.064 195.092 610.596 194.822 617.251 193.348C621.145 198.347 619.717 202.753 619.767 208.058Z" fill="#707376"/>
<path d="M539.467 405.178C540.13 406.675 540.127 408.688 540.138 411.713C540.149 413.814 540.148 414.904 540.164 416.813C538.211 417.653 536.241 417.674 533.285 417.667C534.467 413.656 536.634 409.675 539.467 405.178Z" fill="#707376"/>
<path d="M94.0445 448.827C96.9052 444.7 99.766 440.572 104.192 436.396C128.182 448.266 152.101 456.536 176.384 463.36C193.574 468.191 210.911 472.967 228.892 474.771C241.163 476.002 253.304 478.531 265.504 480.472C277.706 482.412 289.816 485.108 302.286 484.793C304.425 484.739 306.721 484.425 308.686 485.047C319.595 488.504 330.794 486.855 341.661 488.222C339.181 495.89 334.398 498.502 327.543 497.68C324.583 497.325 321.623 496.957 318.68 496.489C304.813 494.281 290.822 492.624 277.135 489.596C268.219 487.623 259.131 488.695 250.472 486.873C240.246 484.722 230.088 485.034 219.868 484.841C208.748 484.631 197.421 485.912 186.556 484.193C175.007 482.366 163.577 482.686 152.082 482.357C141.392 482.05 130.696 481.956 119.221 481.152C111.952 479.334 105.482 478.023 98.9697 476.972C94.7324 476.289 90.9791 474.864 88.0547 471.621C89.228 466.398 90.4012 461.175 91.4952 454.902C91.4158 453.851 91.4046 453.879 92.0875 453.489C93.1839 451.623 93.5977 450.148 93.9765 448.718C93.9414 448.762 94.0445 448.827 94.0445 448.827Z" fill="#8B8C90"/>
<path d="M7.93955 268.834C9.44125 269.52 10.9104 270.935 10.9636 272.402C11.2273 279.662 12.5459 286.74 13.5773 293.903C16.5423 314.499 19.1503 335.134 23.6175 355.486C24.9822 361.704 25.6098 368.082 26.9116 374.315C29.5388 386.894 34.0716 398.831 39.8758 410.27C45.6586 421.667 51.6081 432.979 57.5133 445.25C52.7113 445.876 49.8282 442.472 47.2538 439.118C38.3823 427.558 29.8302 415.746 24.2728 402.133C22.3365 397.39 20.3894 392.557 19.3039 387.579C16.7616 375.921 13.9834 364.368 13.6148 352.226C13.2807 341.222 10.6945 330.294 9.26727 319.312C8.8269 315.925 8.89256 312.468 8.79431 309.041C8.53736 300.079 9.22177 291.134 6.69322 282.229C5.60009 278.379 6.99142 273.823 7.93955 268.834Z" fill="#6C6D71"/>
<path d="M92.8331 440.852C93.7986 442.737 93.8583 444.766 93.9801 447.811C94.0425 448.827 93.9395 448.762 93.32 449.141C92.2679 450.972 91.8353 452.425 91.4028 453.878C91.4028 453.878 91.4139 453.851 91.4508 453.877C88.4294 454.912 86.9973 457.394 85.5873 460.055C84.0544 462.948 82.1707 465.655 80.2294 468.782C73.1793 467.542 68.1192 464.685 65.6133 457.159C73.7983 450.271 82.3175 444.689 92.8331 440.852Z" fill="#6C6D71"/>
<path d="M87.2073 471.815C90.9809 474.864 94.7342 476.289 98.9715 476.972C105.484 478.022 111.954 479.334 118.715 481.438C118.314 482.734 117.759 483.253 117.323 483.9C104.564 481.959 91.7201 480.431 78.6875 475.558C80.7486 473.961 83.5533 472.985 87.2073 471.815Z" fill="#677079"/>
<path d="M9.22266 149.994C10.704 149.968 12.5932 150.647 13.1992 151.932C15.3118 156.41 16.9806 161.098 18.8614 166.65C12.6395 163.855 10.893 160.912 9.22266 149.994Z" fill="#727678"/>
<path d="M469.608 79.4095C468.436 80.6351 466.566 82.1552 464.672 82.1862C451.831 82.3964 438.971 82.6559 426.147 82.1604C417.664 81.8326 409.181 80.5681 400.783 79.1978C389.024 77.2784 377.323 75.2254 365.395 74.3477C357.806 73.7886 350.318 71.7527 342.805 70.2713C338.975 69.5159 334.951 68.4689 331.85 71.5168C327.444 75.848 322.373 74.8778 317.406 73.8297C304.073 71.0154 290.817 67.8396 277.499 64.9518C275.058 64.4223 272.47 64.5718 269.292 64.3653C269.292 67.9525 269.292 71.1328 269.292 74.5676C265.145 75.8803 260.804 70.3052 257.476 75.7693C256.915 76.6911 253.334 76.5947 251.638 75.8508C246.559 73.6222 241.724 70.8392 236.226 67.5844C232.065 60.9015 226.771 56.5816 221.17 51.6698C219.254 52.7407 217.242 53.4511 215.769 54.7664C211.382 58.6853 206.645 60.7119 200.565 59.7827C198.24 59.4274 195.524 60.276 193.252 61.218C188.896 63.0245 184.699 65.2289 180.494 67.3833C176.497 69.4318 172.445 69.9726 167.559 68.5345C167.559 64.8047 167.559 61.2694 167.559 56.9597C159.926 58.6976 154.37 63.0081 148.039 65.4044C142.081 67.6595 135.973 69.5179 128.918 71.8917C128.918 68.2883 128.918 65.6514 128.918 61.9192C117.453 66.1683 107.811 71.4898 98.1634 76.8318C91.0353 80.7793 83.8823 84.7042 76.5564 88.2604C74.0587 89.4729 71.001 89.5318 66.7666 90.4172C70.1658 80.6444 80.4617 77.4912 82.9055 68.0797C77.8319 67.3476 74.9461 69.9111 71.9781 72.1647C65.8425 76.8235 59.7387 81.5238 53.1067 86.9065C49.787 88.4728 46.9823 89.3397 43.2365 90.1436C42.2953 90.0806 42.1875 89.9882 42.1875 89.9882C43.9485 85.6556 45.8426 81.3713 47.4356 76.9778C49.3224 71.7746 50.9496 66.4771 52.7509 60.2355C53.6192 58.9624 54.2661 58.4663 55.031 57.2076C56.1318 56.3794 56.8013 55.8935 57.6039 54.6366C58.7199 53.7846 59.415 53.2998 60.3986 52.1338C66.4718 50.5606 72.0622 49.3585 76.5043 42.8606C77.779 40.5739 78.1403 39.5397 78.5018 38.5054C78.5018 38.5054 78.4004 38.4734 79.398 38.9314C83.8546 38.7767 87.3138 38.1641 91.8175 37.7317C111.22 31.9197 130.201 31.9845 148.957 33.8849C164.217 35.4308 179.219 39.4836 194.349 42.3521C215.362 46.3354 236.369 50.3512 257.417 54.1407C264.983 55.5029 272.654 56.2912 280.287 57.2691C291.729 58.7354 303.169 61.2358 314.628 61.3389C338.604 61.5549 362.61 63.271 386.596 59.5406C396.737 57.9631 406.952 56.9175 416.889 54.2629C433.032 49.95 449.14 45.5068 465.246 41.0574C485.073 35.5806 505.246 31.7278 525.457 28.0371C536.491 28.9536 544.413 35.9707 552.754 42.092C555.088 43.8047 557.036 46.0421 559.9 48.4755C562.444 55.202 566.754 59.9827 570.809 65.9129C566.081 71.4723 560 69.903 554.459 68.4426C546.29 66.2888 538.319 63.3219 531.852 57.3965C530.344 56.0146 528.307 55.2093 525.291 53.5175C523.189 52.937 522.309 52.9775 521.43 53.018C522.105 53.3351 522.765 53.6967 523.464 53.951C523.809 54.0765 524.225 54.0042 524.61 54.0215C525.644 56.2897 526.221 58.9662 527.806 60.7419C531.195 64.5369 535.106 67.8656 538.829 71.4101C538.46 74.4108 536.311 74.6306 534.217 73.8579C528.624 71.793 523.072 69.5866 517.62 67.1731C512.198 64.7729 506.918 62.0524 501.855 59.607C498.889 61.9235 500.013 63.7509 501.492 65.3595C504.706 68.8559 507.571 72.5242 508.661 77.2825C509.125 79.3106 507.505 81.822 505.387 81.8904C502.859 81.9718 500.176 82.1657 497.812 81.4632C489.659 79.04 481.623 76.2232 473.525 73.6131C471.511 72.9641 469.429 72.5283 466.057 71.4619C463.84 70.9778 462.946 71.0259 462.052 71.0741C462.731 71.397 463.394 71.7634 464.096 72.0241C464.444 72.1531 464.863 72.087 465.25 72.1092C465.239 75.0598 466.523 77.3254 469.608 79.4095ZM88.0007 61.9351C88.2506 61.8613 88.5003 61.7876 89.8638 61.1318C90.5521 60.6046 91.0296 59.9283 91.953 58.8319C91.7422 58.9303 91.5314 59.0287 90.1756 59.6616C89.4577 60.1645 88.9684 60.8344 88.0007 61.9351Z" fill="#89B629"/>
<path d="M544.06 75.9795C543.946 76.039 544.175 75.9202 544.06 75.9795V75.9795Z" fill="#89B629"/>
<path d="M90.7743 37.5515C87.315 38.1641 83.8558 38.7767 79.4115 38.9831C78.5445 37.5664 78.6626 36.5563 79.0621 34.8277C80.0015 33.689 80.5809 33.1797 81.4199 32.1127C83.9341 30.2202 86.1108 28.7965 88.7124 26.6987C89.9478 25.7702 90.6354 25.3253 91.5306 24.1676C94.0947 22.309 96.3281 20.9729 98.9903 18.9745C100.797 17.813 102.174 17.3139 104.039 16.2601C129.322 10.784 154.416 8.88838 179.611 7.14611C219.842 4.36415 260.065 4.95646 301.541 5.81618C302.77 6.43722 302.794 7.4436 301.589 7.46855C278.992 8.24743 257.601 6.65213 236.17 9.59987C220.992 11.6875 205.473 10.2061 190.043 12.1602C175.635 13.9849 161.16 15.5476 146.909 18.2224C129.243 21.538 111.746 25.8724 95.2874 33.4296C93.5239 34.2392 92.2663 36.1508 90.7743 37.5515Z" fill="#E3F39C"/>
<path d="M302.793 7.44374C302.793 7.44374 302.769 6.43736 302.734 5.93637C318.412 5.22874 334.133 4.22881 349.784 6.86403C353.935 7.56292 358.27 7.17191 363.662 7.15011C366.086 7.12279 367.366 7.26764 368.65 7.32447C392.184 8.36597 415.804 8.49342 439.224 10.7239C457.061 12.4227 475.233 11.4917 492.329 17.0527C487.206 17.6984 482.225 18.6385 477.838 17.4273C467.259 14.5067 456.583 15.5987 445.933 15.26C442.508 15.1509 438.938 15.7809 435.676 15.0265C419.591 11.3059 403.277 13.2962 387.076 12.6549C384.083 12.5366 380.893 12.9859 378.141 12.0979C371.01 9.79721 363.748 10.2791 356.495 10.177C347.071 10.0441 337.452 11.1189 328.279 9.55199C319.748 8.09461 311.311 7.82255 302.793 7.44374Z" fill="#CEE88F"/>
<path d="M301.583 7.46875C311.306 7.82261 319.742 8.09467 328.274 9.55205C337.446 11.1189 347.066 10.0441 356.49 10.177C363.743 10.2792 371.005 9.79727 378.136 12.098C380.888 12.986 384.078 12.5366 387.071 12.655C403.272 13.2963 419.585 11.306 435.671 15.0265C438.933 15.7809 442.503 15.151 445.928 15.26C456.578 15.5988 467.254 14.5067 477.833 17.4273C482.22 18.6385 487.201 17.6984 493.141 17.6978C505.023 18.1667 514.56 22.3589 524.757 27.3513C505.241 31.728 485.068 35.5808 465.241 41.0576C449.135 45.507 433.027 49.9502 416.884 54.2631C406.947 56.9177 396.732 57.9633 386.591 59.5408C362.605 63.2712 338.6 61.5551 314.623 61.3391C303.164 61.236 291.724 58.7356 280.282 57.2693C272.649 56.2914 264.978 55.5031 257.412 54.1409C236.364 50.3514 215.357 46.3356 194.344 42.3523C179.214 39.4838 164.212 35.431 148.952 33.8851C130.196 31.9848 111.215 31.9199 91.8125 37.7319C92.2601 36.151 93.5176 34.2394 95.2811 33.4298C111.74 25.8726 129.237 21.5382 146.902 18.2226C161.154 15.5478 175.628 13.9851 190.037 12.1604C205.467 10.2063 220.986 11.6877 236.163 9.60007C257.594 6.65232 278.985 8.24763 301.583 7.46875Z" fill="#BBD766"/>
<path d="M39.7275 92.6628C39.4975 92.7488 39.2673 92.8349 39.375 92.7861C39.7125 92.6513 39.7275 92.6628 39.7275 92.6628Z" fill="#89B629"/>
<path d="M39.7109 92.6441C39.9616 91.8142 40.4256 91.1334 41.6431 90.2913C42.1886 89.9882 42.2965 90.0806 42.3445 90.1359C42.115 91.0195 41.6124 91.6755 40.308 92.4111C39.7312 92.6629 39.7163 92.6514 39.7109 92.6441Z" fill="#89B629"/>
<path d="M77.7957 38.3955C78.1397 39.5395 77.7784 40.5737 76.6528 42.0462C75.8547 41.8472 75.8207 41.2101 75.75 39.6187C76.1721 38.5382 76.6312 38.4119 77.7957 38.3955Z" fill="#E3F39C"/>
<path d="M471.228 491.844C468.358 489.881 466.043 490.041 463.467 490.844C456.705 492.95 449.927 495.02 443.09 496.864C441.628 497.258 439.892 496.636 437.648 495.832C438.439 494.344 439.769 493.072 441.304 492.736C461.414 488.33 480.521 481.208 498.905 472.002C501.521 470.692 504.505 470.118 508.3 469.259C506.275 474.442 500.783 476.423 496.09 479.182C488.333 483.741 480.125 487.535 471.228 491.844Z" fill="#616971"/>
<path d="M512.617 466.924C513.027 465.956 514.246 465.068 516.261 464.171C515.847 465.109 514.638 466.057 512.617 466.924Z" fill="#616971"/>
<path d="M519.5 461.536C519.936 461.504 520.372 461.473 521.463 461.469C521.84 462.266 521.345 462.85 520.066 462.903C519.499 462.555 519.5 461.536 519.5 461.536Z" fill="#677079"/>
<path d="M518.917 461.818C519.503 461.535 519.502 462.554 519.506 463.062C519.106 463.767 518.701 463.966 517.621 464.204C517.408 463.53 517.869 462.816 518.917 461.818Z" fill="#616971"/>
<path d="M522.77 461.316C522.741 460.809 523.431 460.072 524.897 459.167C524.945 459.695 524.217 460.39 522.77 461.316Z" fill="#677079"/>
<path d="M509.907 469.216C509.689 468.633 510.168 467.909 511.282 466.969C511.479 467.526 511.04 468.301 509.907 469.216Z" fill="#616971"/>
<path d="M532.021 106.032C541.141 117.731 548.314 130.677 555.795 143.414C557.915 147.023 559.351 151.034 561.154 155.789C554.851 154.178 552.871 147.528 548.638 142.999C538.299 131.934 528.787 120.096 518.969 108.546C518.157 107.591 517.552 106.46 517.587 104.458C522.889 104.348 527.455 105.19 532.021 106.032Z" fill="#A4A4A6"/>
<path d="M531.83 105.154C527.456 105.19 522.89 104.348 517.315 103.638C515.365 103.492 514.425 103.215 512.778 102.734C511.695 97.3242 506.267 95.979 503.82 91.3454C506.875 90.7021 510.243 90.6972 513.58 91.0148C517.359 91.3744 521.11 92.0229 525.915 92.6941C528.517 96.6534 530.078 100.464 531.83 105.154Z" fill="#828588"/>
<path d="M35.3228 385.172C34.1732 380.014 33.3176 375.828 32.5942 371.618C32.0159 368.254 33.545 365.211 36.2595 364.189C38.974 363.167 41.5652 363.85 43.2761 365.955C48.962 372.951 51.5112 380.907 49.2352 389.881C48.2202 393.882 42.94 395.403 39.8922 392.498C38.0959 390.785 37.0547 388.281 35.3228 385.172Z" fill="#6E6F73"/>
<path d="M22.5963 279.587C20.115 275.28 18.0126 271.511 17.0426 267.47C16.529 265.33 17.5978 262.51 18.7216 260.409C19.2473 259.427 21.9443 258.617 23.0647 259.101C30.4983 262.313 31.9859 273.63 25.8789 279.569C25.3884 280.046 24.2715 279.879 22.5963 279.587Z" fill="#6E6F73"/>
<path d="M343.033 482.349C343.824 483.787 343.401 485.101 342.426 486.838C330.795 486.854 319.596 488.503 308.687 485.047C306.722 484.424 304.426 484.739 302.287 484.792C289.817 485.107 277.706 482.412 265.505 480.471C253.304 478.53 241.163 476.001 228.892 474.77C210.912 472.966 193.575 468.19 176.385 463.359C152.101 456.535 128.183 448.265 104.916 435.945C104.108 434.441 104.142 433.339 104.188 431.408C110.806 433.518 117.45 436.373 124.01 439.41C149.018 450.985 175.218 459.022 201.992 465.145C219.485 469.145 237.103 472.624 254.997 474.607C264.753 475.689 274.349 478.305 284.112 479.209C299.869 480.668 315.577 483.316 331.514 482.218C334.932 481.983 338.382 482.211 343.033 482.349Z" fill="#727678"/>
<path d="M350.353 484.76C349.285 484.769 349.23 483.564 349.207 482.962C350.34 481.814 351.458 480.902 352.658 480.778C365.837 479.419 378.35 475.227 391.075 471.93C391.884 471.72 392.771 471.806 394.672 471.745C393.349 475.121 389.619 476.046 385.976 477.176C374.671 480.684 363.119 483.045 350.353 484.76Z" fill="#727678"/>
<path d="M456.561 451.091C455.969 452.354 454.522 454.125 452.683 454.758C445.592 457.201 438.376 459.28 429.483 461.487C427.282 461.436 426.803 461.393 426.324 461.35C435.087 455.166 445.194 452.801 456.561 451.091Z" fill="#797A7D"/>
<path d="M487.57 440.757C485.058 445.251 480.216 446.199 473.969 446.023C476.585 441.813 481.42 440.825 487.57 440.757Z" fill="#797A7D"/>
<path d="M425.485 461.374C426.806 461.393 427.285 461.437 428.485 461.501C427.018 464.515 423.771 464.018 419.754 464.089C420.752 463.181 422.698 462.289 425.485 461.374Z" fill="#727678"/>
<path d="M472.204 445.935C471.729 448.342 469.44 448.622 466.141 448.598C467.278 447.692 469.302 446.808 472.204 445.935Z" fill="#797A7D"/>
<path d="M402.586 469.167C402.088 471.541 399.788 471.825 396.477 471.825C397.627 470.937 399.667 470.057 402.586 469.167Z" fill="#727678"/>
<path d="M418.053 463.995C417.56 466.388 415.254 466.648 411.953 466.663C413.1 465.769 415.136 464.88 418.053 463.995Z" fill="#727678"/>
<path d="M464.462 448.513C463.99 450.926 461.7 451.199 458.402 451.176C459.539 450.27 461.562 449.385 464.462 448.513Z" fill="#797A7D"/>
<path d="M500.566 435.6C500.072 437.986 497.799 438.298 494.504 438.282C495.642 437.366 497.665 436.467 500.566 435.6Z" fill="#797A7D"/>
<path d="M410.316 466.581C409.823 468.97 407.517 469.236 404.211 469.245C405.359 468.355 407.398 467.47 410.316 466.581Z" fill="#727678"/>
<path d="M516.133 427.92C515.695 428.741 514.472 429.593 512.465 430.482C512.903 429.664 514.125 428.807 516.133 427.92Z" fill="#797A7D"/>
<path d="M521.295 425.333C520.858 426.158 519.632 427.008 517.625 427.898C518.065 427.079 519.286 426.219 521.295 425.333Z" fill="#797A7D"/>
<path d="M529.039 420.18C528.597 421.004 527.371 421.859 525.359 422.752C525.801 421.93 527.028 421.071 529.039 420.18Z" fill="#797A7D"/>
<path d="M492.935 438.253C492.494 439.055 491.271 439.907 489.262 440.795C489.702 439.989 490.927 439.145 492.935 438.253Z" fill="#797A7D"/>
<path d="M510.981 430.506C510.543 431.319 509.319 432.169 507.312 433.059C507.751 432.246 508.974 431.395 510.981 430.506Z" fill="#797A7D"/>
<path d="M542.045 399.96C542.25 400.998 541.808 402.475 540.699 404.382C540.488 403.341 540.942 401.871 542.045 399.96Z" fill="#707376"/>
<path d="M505.816 433.077C505.38 433.899 504.158 434.749 502.152 435.637C502.589 434.819 503.81 433.962 505.816 433.077Z" fill="#797A7D"/>
<path d="M524.056 422.999C524.166 423.434 523.671 424.132 522.588 425.113C522.484 424.686 522.967 423.974 524.056 422.999Z" fill="#797A7D"/>
<path d="M531.764 417.842C531.882 418.288 531.39 418.98 530.316 419.955C530.207 419.521 530.68 418.804 531.764 417.842Z" fill="#797A7D"/>
<path d="M148.738 74.6956C150.294 71.2237 152.066 67.6179 157.801 68.0494C156.793 71.8907 155.913 75.2423 154.766 79.6071C159.607 78.6604 163.245 77.6911 166.943 77.3019C170.323 76.9464 173.769 77.2186 178.334 77.2934C170.137 82.0703 160.264 82.8125 149.944 81.885C149.734 79.2851 149.571 77.2585 148.738 74.6956Z" fill="#5F962B"/>
<path d="M197.75 72.6587C203.49 66.6554 203.49 66.6554 211.321 71.7361C208.796 74.193 205.482 76.5241 201.664 79.2095C200.233 76.5815 199.291 74.8524 197.75 72.6587Z" fill="#5F962B"/>
<path d="M213.516 71.5416C216.601 66.5699 217.118 66.4978 220.093 71.2834C218.241 71.8801 216.354 71.7038 213.516 71.5416Z" fill="#5F962B"/>
<path d="M190.281 74.732C190.754 72.3141 192.999 72.021 196.259 72.0999C195.133 73.0278 193.136 73.9051 190.281 74.732Z" fill="#5F962B"/>
<path d="M182.414 77.072C183.58 76.1953 185.605 75.4023 188.489 74.6587C187.323 75.524 185.297 76.3397 182.414 77.072Z" fill="#5F962B"/>
<path d="M91.6323 92.0159C91.5186 91.5066 92.0458 90.8428 93.2009 89.9863C93.3104 90.4831 92.7916 91.1722 91.6323 92.0159Z" fill="#727678"/>
<path d="M589.371 230.3C590.195 228.083 590.922 226.944 591.717 225.102C592.495 223.357 592.993 222.022 593.953 221.324C596.912 219.173 600.355 219.951 601.14 222.999C603 230.227 602.944 237.392 598.433 243.714C597.422 245.13 594.998 246.139 593.204 246.171C592.116 246.19 590.245 244.097 590.02 242.739C589.406 239.012 589.475 235.173 589.371 230.3Z" fill="#6E6F73"/>
<path d="M568.556 373.986C568.036 377.865 567.859 380.859 566.829 383.524C566.398 384.639 564.204 385.464 562.721 385.636C561.813 385.74 560.326 384.574 559.797 383.6C556.721 377.933 558.618 369.669 563.817 365.232C564.97 364.247 567.496 365 567.883 366.702C568.347 368.736 568.351 370.874 568.556 373.986Z" fill="#6F7275"/>
<path d="M92.0885 453.488C91.8382 452.425 92.2708 450.972 93.358 449.096C93.5987 450.148 93.185 451.623 92.0885 453.488Z" fill="#565E63"/>
<path d="M524.638 53.9939C524.226 54.0043 523.809 54.0765 523.464 53.9511C522.765 53.6968 522.105 53.3351 521.43 53.018C522.309 52.9776 523.189 52.9371 524.39 53.4009C524.712 53.9054 524.666 53.9662 524.638 53.9939Z" fill="#679C13"/>
<path d="M465.285 72.0679C464.859 72.0871 464.439 72.1532 464.091 72.0243C463.389 71.7635 462.726 71.3972 462.047 71.0743C462.941 71.0261 463.835 70.9779 465.061 71.4326C465.392 71.9355 465.324 72.0265 465.285 72.0679Z" fill="#679C13"/>
<path d="M91.3204 59.1269C91.5314 59.0285 91.7422 58.9301 91.6298 58.9742C91.3064 59.1169 91.3204 59.1269 91.3204 59.1269Z" fill="#649A1F"/>
<path d="M88.7504 61.7138C88.5005 61.7875 88.2508 61.8611 88.364 61.8158C88.7271 61.6964 88.7504 61.7138 88.7504 61.7138Z" fill="#649A1F"/>
<path d="M88.7188 61.6842C88.9697 60.8347 89.4591 60.1648 90.7495 59.3947C91.3218 59.1274 91.3078 59.1173 91.3029 59.1104C91.031 59.9286 90.5534 60.6048 89.3082 61.4232C88.7515 61.7142 88.7282 61.6968 88.7188 61.6842Z" fill="#649A1F"/>
</svg>
