<svg width="782" height="337" viewBox="0 0 782 337" fill="none" xmlns="http://www.w3.org/2000/svg">
<g filter="url(#filter0_d_1094_184)">
<rect x="4" y="34" width="774" height="303" rx="151.5" fill="#58CC02"/>
</g>
<path d="M230.609 188.984C230.609 174.609 227.562 163.099 221.469 154.453C215.375 145.807 207.276 141.484 197.172 141.484C193.526 141.484 190.688 141.901 188.656 142.734C186.625 143.516 185.375 144.74 184.906 146.406C184.281 148.438 183.786 152.526 183.422 158.672C183.109 164.766 182.953 172.474 182.953 181.797C182.953 193.203 183.109 202.969 183.422 211.094C183.786 219.219 184.229 224.167 184.75 225.938C185.219 227.396 186.833 228.698 189.594 229.844C192.406 230.99 195.583 231.562 199.125 231.562C209.125 231.562 216.859 227.865 222.328 220.469C227.849 213.021 230.609 202.526 230.609 188.984ZM204.203 245.938C199.307 245.938 192.849 245.781 184.828 245.469C176.859 245.156 171.339 245 168.266 245C166.859 245 164.958 245.026 162.562 245.078C160.219 245.13 158.526 245.156 157.484 245.156C155.714 245.156 154.177 245.104 152.875 245C151.573 244.896 150.401 244.74 149.359 244.531C146.964 244.01 145.219 243.203 144.125 242.109C143.031 240.964 142.484 239.427 142.484 237.5C142.484 234.74 144.021 232.578 147.094 231.016C150.167 229.401 151.885 228.359 152.25 227.891C152.979 226.797 153.552 222.292 153.969 214.375C154.438 206.406 154.672 195.703 154.672 182.266C154.672 171.641 154.464 163.125 154.047 156.719C153.63 150.312 153.031 146.562 152.25 145.469C151.885 144.948 150.167 143.906 147.094 142.344C144.021 140.781 142.484 138.62 142.484 135.859C142.484 132.943 143.812 130.938 146.469 129.844C149.177 128.75 154.932 128.203 163.734 128.203C169.464 128.203 176.156 128.099 183.812 127.891C191.469 127.682 196.26 127.578 198.188 127.578C208.656 127.578 217.042 128.307 223.344 129.766C229.646 131.224 235.115 133.594 239.75 136.875C247.198 142.031 252.849 148.88 256.703 157.422C260.557 165.911 262.484 175.755 262.484 186.953C262.484 205.182 257.276 219.583 246.859 230.156C236.443 240.677 222.224 245.938 204.203 245.938ZM364.281 198.906C364.281 191.302 363.266 183.932 361.234 176.797C359.255 169.609 356.443 163.385 352.797 158.125C349.307 153.021 345.557 149.167 341.547 146.562C337.536 143.906 333.396 142.578 329.125 142.578C321.99 142.578 316.26 145.625 311.938 151.719C307.615 157.76 305.453 165.859 305.453 176.016C305.453 183.516 306.469 190.807 308.5 197.891C310.531 204.922 313.448 211.302 317.25 217.031C320.531 221.875 324.125 225.547 328.031 228.047C331.938 230.495 336.13 231.719 340.609 231.719C347.797 231.719 353.526 228.75 357.797 222.812C362.12 216.875 364.281 208.906 364.281 198.906ZM335.219 248.203C328.552 248.203 322.172 247.24 316.078 245.312C310.036 243.438 304.464 240.677 299.359 237.031C291.286 231.25 285.089 223.932 280.766 215.078C276.495 206.224 274.359 196.302 274.359 185.312C274.359 178.438 275.323 171.953 277.25 165.859C279.229 159.714 282.12 154.089 285.922 148.984C291.182 141.953 298.161 136.432 306.859 132.422C315.557 128.411 325.01 126.406 335.219 126.406C342.25 126.406 348.917 127.448 355.219 129.531C361.521 131.615 367.224 134.635 372.328 138.594C379.672 144.323 385.401 151.693 389.516 160.703C393.63 169.661 395.688 179.297 395.688 189.609C395.688 196.224 394.724 202.526 392.797 208.516C390.922 214.453 388.135 219.896 384.438 224.844C378.969 232.292 371.938 238.047 363.344 242.109C354.802 246.172 345.427 248.203 335.219 248.203ZM437.328 171.719C436.911 171.562 436.625 171.484 436.469 171.484C436.312 171.432 436.182 171.406 436.078 171.406C435.609 171.406 435.193 171.589 434.828 171.953C434.516 172.318 434.281 172.839 434.125 173.516C434.125 174.349 434.099 175.599 434.047 177.266C433.891 181.641 433.812 184.531 433.812 185.938C433.812 197.76 434.021 207.448 434.438 215C434.906 222.5 435.505 226.797 436.234 227.891C436.599 228.359 438.344 229.401 441.469 231.016C444.594 232.578 446.156 234.74 446.156 237.5C446.156 240.365 444.646 242.422 441.625 243.672C438.656 244.87 433.5 245.469 426.156 245.469C418.448 245.469 413.083 244.87 410.062 243.672C407.042 242.474 405.531 240.417 405.531 237.5C405.531 234.74 407.068 232.578 410.141 231.016C413.214 229.401 414.932 228.359 415.297 227.891C416.026 226.797 416.599 222.292 417.016 214.375C417.432 206.406 417.641 195.703 417.641 182.266C417.641 171.641 417.432 163.125 417.016 156.719C416.599 150.312 416.026 146.589 415.297 145.547C414.88 144.922 413.135 143.854 410.062 142.344C407.042 140.781 405.531 138.62 405.531 135.859C405.531 132.995 406.964 130.938 409.828 129.688C412.745 128.385 417.484 127.734 424.047 127.734C429.411 127.734 433.135 128.047 435.219 128.672C437.302 129.245 439.125 130.312 440.688 131.875C447.927 139.115 457.953 149.792 470.766 163.906C483.63 177.969 493.161 187.865 499.359 193.594C499.776 193.75 500.062 193.854 500.219 193.906C500.427 193.958 500.583 193.984 500.688 193.984C501.208 193.984 501.625 193.776 501.938 193.359C502.302 192.943 502.536 192.318 502.641 191.484C502.693 190.755 502.719 189.948 502.719 189.062C502.771 188.125 502.797 186.823 502.797 185.156C502.797 174.219 502.536 165.13 502.016 157.891C501.547 150.651 500.948 146.51 500.219 145.469C499.854 145 498.135 143.984 495.062 142.422C491.99 140.807 490.453 138.62 490.453 135.859C490.453 132.943 491.964 130.859 494.984 129.609C498.057 128.359 503.214 127.734 510.453 127.734C518.057 127.734 523.396 128.359 526.469 129.609C529.542 130.807 531.078 132.891 531.078 135.859C531.078 138.62 529.516 140.807 526.391 142.422C523.266 143.984 521.521 145 521.156 145.469C520.375 146.615 519.776 151.224 519.359 159.297C518.995 167.37 518.812 178.932 518.812 193.984C518.812 194.557 518.865 198.464 518.969 205.703C519.073 212.891 519.125 219.74 519.125 226.25C519.125 234.635 518.578 240.078 517.484 242.578C516.443 245.026 514.516 246.25 511.703 246.25C508.578 246.25 502.745 241.484 494.203 231.953C491.234 228.672 488.865 226.094 487.094 224.219C483.083 219.896 477.589 213.984 470.609 206.484C452.38 186.745 441.286 175.156 437.328 171.719ZM615.062 128.359C617.823 128.359 620.688 128.099 623.656 127.578C626.677 127.057 628.292 126.797 628.5 126.797C630.948 126.797 632.979 128.88 634.594 133.047C636.26 137.161 637.094 142.37 637.094 148.672C637.094 151.38 636.573 153.438 635.531 154.844C634.542 156.198 633.057 156.875 631.078 156.875C628.995 156.875 626.911 155.391 624.828 152.422C622.797 149.453 621.417 147.682 620.688 147.109C618.656 145.495 615.896 144.349 612.406 143.672C608.969 142.943 604.203 142.578 598.109 142.578C591.078 142.578 586.521 142.839 584.438 143.359C582.406 143.828 581.208 144.688 580.844 145.938C580.375 147.292 580.01 150.208 579.75 154.688C579.49 159.115 579.359 164.635 579.359 171.25C579.359 174.896 582.406 176.719 588.5 176.719C594.958 176.719 599.073 176.276 600.844 175.391C602.667 174.453 603.943 172.578 604.672 169.766C604.88 168.88 605.062 167.63 605.219 166.016C605.792 161.276 607.745 158.906 611.078 158.906C613.995 158.906 616.052 160.677 617.25 164.219C618.448 167.76 619.047 173.984 619.047 182.891C619.047 192.891 618.422 199.635 617.172 203.125C615.974 206.615 613.786 208.359 610.609 208.359C607.589 208.359 605.844 206.172 605.375 201.797C605.167 199.922 604.932 198.49 604.672 197.5C603.943 194.688 602.667 192.839 600.844 191.953C599.073 191.068 595.01 190.625 588.656 190.625H587.719C583.656 190.625 581.234 190.911 580.453 191.484C579.724 192.005 579.359 193.62 579.359 196.328V199.688C579.359 206.979 579.49 212.682 579.75 216.797C580.062 220.859 580.531 223.646 581.156 225.156C581.885 226.979 583.474 228.307 585.922 229.141C588.422 229.922 592.276 230.312 597.484 230.312C605.557 230.312 611.651 229.766 615.766 228.672C619.88 227.578 622.953 225.755 624.984 223.203C626.286 221.536 627.849 218.568 629.672 214.297C631.495 210.026 633.656 207.891 636.156 207.891C638.083 207.891 639.542 208.698 640.531 210.312C641.573 211.875 642.094 214.167 642.094 217.188C642.094 225.104 641.026 232.057 638.891 238.047C636.755 243.984 634.464 246.953 632.016 246.953C631.755 246.953 631.078 246.797 629.984 246.484C626.391 245.495 622.797 245 619.203 245H562.406C551.781 245 545.167 244.479 542.562 243.438C540.01 242.344 538.734 240.365 538.734 237.5C538.734 234.74 540.271 232.578 543.344 231.016C546.417 229.401 548.135 228.359 548.5 227.891C549.229 226.797 549.802 222.292 550.219 214.375C550.688 206.406 550.922 195.703 550.922 182.266C550.922 171.641 550.714 163.125 550.297 156.719C549.88 150.312 549.281 146.562 548.5 145.469C548.135 144.948 546.417 143.906 543.344 142.344C540.271 140.781 538.734 138.62 538.734 135.859C538.734 132.995 540.01 131.042 542.562 130C545.167 128.906 552.094 128.359 563.344 128.359H615.062Z" fill="white"/>
<defs>
<filter id="filter0_d_1094_184" x="0" y="0" width="782" height="337" filterUnits="userSpaceOnUse" color-interpolation-filters="sRGB">
<feFlood flood-opacity="0" result="BackgroundImageFix"/>
<feColorMatrix in="SourceAlpha" type="matrix" values="0 0 0 0 0 0 0 0 0 0 0 0 0 0 0 0 0 0 127 0" result="hardAlpha"/>
<feOffset dy="-30"/>
<feGaussianBlur stdDeviation="2"/>
<feComposite in2="hardAlpha" operator="out"/>
<feColorMatrix type="matrix" values="0 0 0 0 0.47451 0 0 0 0 0.839216 0 0 0 0 0.207843 0 0 0 1 0"/>
<feBlend mode="normal" in2="BackgroundImageFix" result="effect1_dropShadow_1094_184"/>
<feBlend mode="normal" in="SourceGraphic" in2="effect1_dropShadow_1094_184" result="shape"/>
</filter>
</defs>
</svg>
