<svg width="782" height="337" viewBox="0 0 782 337" fill="none" xmlns="http://www.w3.org/2000/svg">
<g filter="url(#filter0_d_1421_186)">
<rect x="4" y="34" width="774" height="303" rx="151.5" fill="#FFC04D"/>
</g>
<path d="M188.812 129.609C190.01 128.724 191.156 128.073 192.25 127.656C193.396 127.188 194.516 126.953 195.609 126.953C199.464 126.953 203.266 129.818 207.016 135.547C210.818 141.224 212.719 147.266 212.719 153.672C212.719 156.38 212.042 158.516 210.688 160.078C209.385 161.641 207.615 162.422 205.375 162.422C202.146 162.422 198.318 159.688 193.891 154.219C193.734 154.01 193.604 153.854 193.5 153.75C189.698 149.01 186.182 145.729 182.953 143.906C179.724 142.083 176.052 141.172 171.938 141.172C166.885 141.172 162.875 142.37 159.906 144.766C156.938 147.109 155.453 150.286 155.453 154.297C155.453 160.911 163.214 167.578 178.734 174.297C180.661 175.13 182.12 175.755 183.109 176.172C195.401 181.536 203.839 186.875 208.422 192.188C213.005 197.448 215.297 204.062 215.297 212.031C215.297 222.812 211.052 231.458 202.562 237.969C194.125 244.479 182.849 247.734 168.734 247.734C160.609 247.734 152.953 246.823 145.766 245C138.578 243.229 133.396 241.042 130.219 238.438C128.24 236.927 126.469 233.88 124.906 229.297C123.396 224.714 122.641 219.974 122.641 215.078C122.641 211.432 123.266 208.698 124.516 206.875C125.766 205 127.615 204.062 130.062 204.062C133.5 204.062 137.016 207.188 140.609 213.438C142.016 215.781 143.135 217.604 143.969 218.906C146.885 223.385 150.323 226.745 154.281 228.984C158.24 231.224 162.693 232.344 167.641 232.344C172.38 232.344 176.312 231.016 179.438 228.359C182.562 225.703 184.125 222.396 184.125 218.438C184.125 214.74 182.953 211.589 180.609 208.984C178.266 206.38 173.031 203.177 164.906 199.375C163.865 198.906 162.25 198.177 160.062 197.188C149.125 192.344 140.974 187.63 135.609 183.047C132.172 180.13 129.568 176.719 127.797 172.812C126.078 168.906 125.219 164.583 125.219 159.844C125.219 150.312 129.203 142.37 137.172 136.016C145.141 129.609 155.297 126.406 167.641 126.406C170.766 126.406 174.073 126.693 177.562 127.266C181.052 127.786 184.802 128.568 188.812 129.609ZM308.734 128.516C312.276 128.516 315.87 128.021 319.516 127.031C320.609 126.719 321.286 126.562 321.547 126.562C324.047 126.562 326.443 129.714 328.734 136.016C331.078 142.318 332.25 149.375 332.25 157.188C332.25 159.948 331.755 162.057 330.766 163.516C329.776 164.922 328.344 165.625 326.469 165.625C323.135 165.625 319.984 162.708 317.016 156.875C316.547 155.99 316.182 155.286 315.922 154.766C315.87 154.661 315.818 154.557 315.766 154.453C312.016 147.318 306.729 143.75 299.906 143.75C296.469 143.75 294.151 144.141 292.953 144.922C291.755 145.651 290.974 147.396 290.609 150.156C290.453 151.406 290.271 154.74 290.062 160.156C289.906 165.521 289.828 171.458 289.828 177.969C289.828 191.51 289.984 202.578 290.297 211.172C290.661 219.714 291.156 224.974 291.781 226.953C292.094 228.099 293.604 229.297 296.312 230.547C296.365 230.547 296.391 230.573 296.391 230.625C298.63 231.615 300.115 232.604 300.844 233.594C301.625 234.583 302.016 235.885 302.016 237.5C302.016 240.573 300.219 242.734 296.625 243.984C293.083 245.182 286.286 245.781 276.234 245.781C266.182 245.781 259.359 245.182 255.766 243.984C252.224 242.734 250.453 240.573 250.453 237.5C250.453 234.74 252.016 232.578 255.141 231.016C258.318 229.401 260.062 228.359 260.375 227.891C261.208 226.641 261.807 221.875 262.172 213.594C262.589 205.26 262.797 193.385 262.797 177.969C262.797 171.458 262.693 165.521 262.484 160.156C262.328 154.74 262.172 151.406 262.016 150.156C261.651 147.396 260.87 145.651 259.672 144.922C258.526 144.141 256.208 143.75 252.719 143.75C245.792 143.75 240.401 147.422 236.547 154.766C236.286 155.286 235.87 156.094 235.297 157.188C232.432 162.812 229.385 165.625 226.156 165.625C224.281 165.625 222.849 164.922 221.859 163.516C220.87 162.057 220.375 159.948 220.375 157.188C220.375 149.375 221.521 142.318 223.812 136.016C226.156 129.714 228.578 126.562 231.078 126.562C231.443 126.615 232.12 126.771 233.109 127.031C236.755 128.021 240.349 128.516 243.891 128.516H308.734ZM385.062 197.344C384.646 196.094 384.021 194.297 383.188 191.953C377.25 174.818 373.5 166.25 371.938 166.25C370.271 166.25 366.052 175.339 359.281 193.516L357.875 197.344C361.208 197.188 363.786 197.109 365.609 197.109C367.484 197.057 369.281 197.031 371 197.031C372.615 197.031 374.359 197.057 376.234 197.109C378.161 197.109 381.104 197.188 385.062 197.344ZM412.25 245.781C403.396 245.781 397.146 245.156 393.5 243.906C389.906 242.656 388.109 240.573 388.109 237.656C388.109 236.51 388.344 235.469 388.812 234.531C389.281 233.594 389.906 232.917 390.688 232.5C391.208 232.24 391.964 231.901 392.953 231.484C395.245 230.391 396.391 229.245 396.391 228.047C396.391 225.911 395.661 223.203 394.203 219.922C392.745 216.641 391.312 214.505 389.906 213.516C389.125 212.995 387.172 212.63 384.047 212.422C380.974 212.161 376.729 212.031 371.312 212.031C364.49 212.031 359.724 212.135 357.016 212.344C354.359 212.552 352.693 212.865 352.016 213.281C351.026 213.802 349.906 215.495 348.656 218.359C347.458 221.224 346.859 223.594 346.859 225.469C346.859 226.562 347.12 227.474 347.641 228.203C348.214 228.88 349.255 229.557 350.766 230.234C351.078 230.391 351.521 230.599 352.094 230.859C356.156 232.682 358.188 234.948 358.188 237.656C358.188 240.521 356.521 242.552 353.188 243.75C349.854 244.896 343.682 245.469 334.672 245.469C328.422 245.469 323.708 244.844 320.531 243.594C317.354 242.292 315.766 240.365 315.766 237.812C315.766 234.792 318.161 232.37 322.953 230.547C324.62 229.87 325.818 229.349 326.547 228.984C329.307 227.63 334.073 218.333 340.844 201.094C342.875 195.885 344.49 191.797 345.688 188.828C346.573 186.589 347.901 183.359 349.672 179.141C358.266 157.995 363.188 143.359 364.438 135.234C365.01 131.536 366 129.167 367.406 128.125C368.865 127.083 371.391 126.562 374.984 126.562C378.318 126.562 380.922 127.005 382.797 127.891C384.724 128.724 386.443 130.208 387.953 132.344C389.932 135.26 393.24 142.214 397.875 153.203C402.51 164.193 411.078 185.703 423.578 217.734C423.682 217.943 423.786 218.177 423.891 218.438C426.182 224.583 429.307 228.255 433.266 229.453C436.026 230.339 438.083 231.432 439.438 232.734C440.844 234.036 441.547 235.573 441.547 237.344C441.547 240.417 439.385 242.604 435.062 243.906C430.792 245.156 423.188 245.781 412.25 245.781ZM484.047 172.5V178.281C485.036 178.385 486.052 178.464 487.094 178.516C488.135 178.568 489.646 178.594 491.625 178.594C499.958 178.594 506.026 177.161 509.828 174.297C513.682 171.432 515.609 166.901 515.609 160.703C515.609 154.87 513.839 150.365 510.297 147.188C506.755 144.01 501.703 142.422 495.141 142.422C491.911 142.422 489.568 142.76 488.109 143.438C486.703 144.062 485.74 145.182 485.219 146.797C484.802 147.943 484.49 150.026 484.281 153.047C484.125 156.016 484.047 162.5 484.047 172.5ZM484.125 194.766C484.073 196.328 484.021 198.464 483.969 201.172C483.917 203.828 483.891 205.703 483.891 206.797C483.891 213.203 484.021 218.099 484.281 221.484C484.594 224.818 485.062 226.953 485.688 227.891C486 228.359 487.693 229.401 490.766 231.016C493.891 232.578 495.453 234.74 495.453 237.5C495.453 240.573 493.656 242.734 490.062 243.984C486.521 245.182 479.724 245.781 469.672 245.781C459.307 245.781 452.354 245.182 448.812 243.984C445.323 242.786 443.578 240.625 443.578 237.5C443.578 234.74 445.141 232.578 448.266 231.016C451.391 229.401 453.135 228.359 453.5 227.891C454.281 226.797 454.88 222.292 455.297 214.375C455.714 206.406 455.922 195.703 455.922 182.266C455.922 171.641 455.714 163.125 455.297 156.719C454.88 150.312 454.281 146.562 453.5 145.469C453.083 144.896 451.312 143.854 448.188 142.344C445.115 140.781 443.578 138.62 443.578 135.859C443.578 133.359 444.672 131.458 446.859 130.156C449.047 128.854 452.276 128.203 456.547 128.203C459.359 128.203 462.693 128.255 466.547 128.359C470.401 128.464 472.875 128.516 473.969 128.516C477.979 128.516 483.37 128.359 490.141 128.047C496.964 127.734 501.755 127.578 504.516 127.578C517.589 127.578 527.458 130.208 534.125 135.469C540.844 140.677 544.203 148.385 544.203 158.594C544.203 165.99 542.224 172.396 538.266 177.812C534.359 183.177 529.151 186.589 522.641 188.047C522.38 188.307 522.198 188.49 522.094 188.594C522.042 188.698 522.016 188.776 522.016 188.828C522.016 188.932 522.042 189.062 522.094 189.219C522.198 189.323 522.38 189.505 522.641 189.766C525.297 190.495 527.641 191.458 529.672 192.656C531.703 193.802 533.526 195.208 535.141 196.875C536.286 198.125 537.328 199.531 538.266 201.094C539.203 202.656 540.01 204.375 540.688 206.25C541.625 208.698 542.641 212.318 543.734 217.109C544.828 221.849 545.896 225.13 546.938 226.953C548.135 228.88 550.401 230.26 553.734 231.094C554.516 231.25 555.141 231.406 555.609 231.562C557.432 232.188 558.734 232.943 559.516 233.828C560.297 234.714 560.688 235.885 560.688 237.344C560.688 240.417 558.917 242.839 555.375 244.609C551.833 246.38 546.938 247.266 540.688 247.266C536.573 247.266 533.005 246.797 529.984 245.859C527.016 244.922 524.516 243.516 522.484 241.641C518.943 238.359 515.714 231.536 512.797 221.172C512.12 218.828 511.625 217.083 511.312 215.938C508.604 207.083 505.714 201.328 502.641 198.672C499.62 195.964 494.932 194.609 488.578 194.609C487.38 194.609 486.469 194.635 485.844 194.688C485.219 194.688 484.646 194.714 484.125 194.766ZM639.672 128.516C643.214 128.516 646.807 128.021 650.453 127.031C651.547 126.719 652.224 126.562 652.484 126.562C654.984 126.562 657.38 129.714 659.672 136.016C662.016 142.318 663.188 149.375 663.188 157.188C663.188 159.948 662.693 162.057 661.703 163.516C660.714 164.922 659.281 165.625 657.406 165.625C654.073 165.625 650.922 162.708 647.953 156.875C647.484 155.99 647.12 155.286 646.859 154.766C646.807 154.661 646.755 154.557 646.703 154.453C642.953 147.318 637.667 143.75 630.844 143.75C627.406 143.75 625.089 144.141 623.891 144.922C622.693 145.651 621.911 147.396 621.547 150.156C621.391 151.406 621.208 154.74 621 160.156C620.844 165.521 620.766 171.458 620.766 177.969C620.766 191.51 620.922 202.578 621.234 211.172C621.599 219.714 622.094 224.974 622.719 226.953C623.031 228.099 624.542 229.297 627.25 230.547C627.302 230.547 627.328 230.573 627.328 230.625C629.568 231.615 631.052 232.604 631.781 233.594C632.562 234.583 632.953 235.885 632.953 237.5C632.953 240.573 631.156 242.734 627.562 243.984C624.021 245.182 617.224 245.781 607.172 245.781C597.12 245.781 590.297 245.182 586.703 243.984C583.161 242.734 581.391 240.573 581.391 237.5C581.391 234.74 582.953 232.578 586.078 231.016C589.255 229.401 591 228.359 591.312 227.891C592.146 226.641 592.745 221.875 593.109 213.594C593.526 205.26 593.734 193.385 593.734 177.969C593.734 171.458 593.63 165.521 593.422 160.156C593.266 154.74 593.109 151.406 592.953 150.156C592.589 147.396 591.807 145.651 590.609 144.922C589.464 144.141 587.146 143.75 583.656 143.75C576.729 143.75 571.339 147.422 567.484 154.766C567.224 155.286 566.807 156.094 566.234 157.188C563.37 162.812 560.323 165.625 557.094 165.625C555.219 165.625 553.786 164.922 552.797 163.516C551.807 162.057 551.312 159.948 551.312 157.188C551.312 149.375 552.458 142.318 554.75 136.016C557.094 129.714 559.516 126.562 562.016 126.562C562.38 126.615 563.057 126.771 564.047 127.031C567.693 128.021 571.286 128.516 574.828 128.516H639.672Z" fill="white"/>
<defs>
<filter id="filter0_d_1421_186" x="0" y="0" width="782" height="337" filterUnits="userSpaceOnUse" color-interpolation-filters="sRGB">
<feFlood flood-opacity="0" result="BackgroundImageFix"/>
<feColorMatrix in="SourceAlpha" type="matrix" values="0 0 0 0 0 0 0 0 0 0 0 0 0 0 0 0 0 0 127 0" result="hardAlpha"/>
<feOffset dy="-30"/>
<feGaussianBlur stdDeviation="2"/>
<feComposite in2="hardAlpha" operator="out"/>
<feColorMatrix type="matrix" values="0 0 0 0 0.996078 0 0 0 0 0.886275 0 0 0 0 0.517647 0 0 0 1 0"/>
<feBlend mode="normal" in2="BackgroundImageFix" result="effect1_dropShadow_1421_186"/>
<feBlend mode="normal" in="SourceGraphic" in2="effect1_dropShadow_1421_186" result="shape"/>
</filter>
</defs>
</svg>
